<?xml version="1.0" encoding="UTF-8" standalone="no"?>
<!DOCTYPE svg PUBLIC "-//W3C//DTD SVG 1.1//EN"
 "http://www.w3.org/Graphics/SVG/1.1/DTD/svg11.dtd">
<!-- Generated by graphviz version 14.1.1 (20251213.1925)
 -->
<!-- Title: InheritanceTree Pages: 1 -->
<svg width="370pt" height="285pt"
 viewBox="0.00 0.00 370.00 285.00" xmlns="http://www.w3.org/2000/svg" xmlns:xlink="http://www.w3.org/1999/xlink">
<g id="graph0" class="graph" transform="scale(1 1) rotate(0) translate(4 280.5)">
<title>InheritanceTree</title>
<polygon fill="white" stroke="none" points="-4,4 -4,-280.5 366,-280.5 366,4 -4,4"/>
<text xml:space="preserve" text-anchor="middle" x="181" y="-7.2" font-family="Times New Roman,serif" font-size="14.00">simple_decimal &#45; Inheritance Hierarchy</text>
<!-- SIMPLE_DECIMAL -->
<g id="node1" class="node">
<title>SIMPLE_DECIMAL</title>
<path fill="none" stroke="black" d="M121.75,-96.5C121.75,-96.5 12,-96.5 12,-96.5 6,-96.5 0,-90.5 0,-84.5 0,-84.5 0,-72.5 0,-72.5 0,-66.5 6,-60.5 12,-60.5 12,-60.5 121.75,-60.5 121.75,-60.5 127.75,-60.5 133.75,-66.5 133.75,-72.5 133.75,-72.5 133.75,-84.5 133.75,-84.5 133.75,-90.5 127.75,-96.5 121.75,-96.5"/>
<text xml:space="preserve" text-anchor="middle" x="66.88" y="-73.45" font-family="Times New Roman,serif" font-size="14.00">SIMPLE_DECIMAL</text>
</g>
<!-- ANY -->
<g id="node2" class="node">
<title>ANY</title>
<path fill="none" stroke="black" d="M316.88,-132.5C316.88,-132.5 286.88,-132.5 286.88,-132.5 280.88,-132.5 274.88,-126.5 274.88,-120.5 274.88,-120.5 274.88,-108.5 274.88,-108.5 274.88,-102.5 280.88,-96.5 286.88,-96.5 286.88,-96.5 316.88,-96.5 316.88,-96.5 322.88,-96.5 328.88,-102.5 328.88,-108.5 328.88,-108.5 328.88,-120.5 328.88,-120.5 328.88,-126.5 322.88,-132.5 316.88,-132.5"/>
<text xml:space="preserve" text-anchor="middle" x="301.88" y="-109.45" font-family="Times New Roman,serif" font-size="14.00">ANY</text>
</g>
<!-- SIMPLE_DECIMAL&#45;&gt;ANY -->
<g id="edge1" class="edge">
<title>SIMPLE_DECIMAL&#45;&gt;ANY</title>
<path fill="none" stroke="black" d="M121,-96.92C121,-105.78 121,-114.5 121,-114.5 121,-114.5 262.89,-114.5 262.89,-114.5"/>
<polygon fill="none" stroke="black" points="262.89,-118 272.89,-114.5 262.89,-111 262.89,-118"/>
</g>
<!-- COMPARABLE -->
<g id="node3" class="node">
<title>COMPARABLE</title>
<path fill="none" stroke="black" d="M344,-60.5C344,-60.5 259.75,-60.5 259.75,-60.5 253.75,-60.5 247.75,-54.5 247.75,-48.5 247.75,-48.5 247.75,-36.5 247.75,-36.5 247.75,-30.5 253.75,-24.5 259.75,-24.5 259.75,-24.5 344,-24.5 344,-24.5 350,-24.5 356,-30.5 356,-36.5 356,-36.5 356,-48.5 356,-48.5 356,-54.5 350,-60.5 344,-60.5"/>
<text xml:space="preserve" text-anchor="middle" x="301.88" y="-37.45" font-family="Times New Roman,serif" font-size="14.00">COMPARABLE</text>
</g>
<!-- SIMPLE_DECIMAL&#45;&gt;COMPARABLE -->
<g id="edge2" class="edge">
<title>SIMPLE_DECIMAL&#45;&gt;COMPARABLE</title>
<path fill="none" stroke="black" d="M134.23,-78.5C190.29,-78.5 261,-78.5 261,-78.5 261,-78.5 261,-72.44 261,-72.44"/>
<polygon fill="none" stroke="black" points="264.5,-72.44 261,-62.44 257.5,-72.44 264.5,-72.44"/>
</g>
<!-- LIB_TESTS -->
<g id="node4" class="node">
<title>LIB_TESTS</title>
<path fill="none" stroke="black" d="M97,-204.5C97,-204.5 36.75,-204.5 36.75,-204.5 30.75,-204.5 24.75,-198.5 24.75,-192.5 24.75,-192.5 24.75,-180.5 24.75,-180.5 24.75,-174.5 30.75,-168.5 36.75,-168.5 36.75,-168.5 97,-168.5 97,-168.5 103,-168.5 109,-174.5 109,-180.5 109,-180.5 109,-192.5 109,-192.5 109,-198.5 103,-204.5 97,-204.5"/>
<text xml:space="preserve" text-anchor="middle" x="66.88" y="-181.45" font-family="Times New Roman,serif" font-size="14.00">LIB_TESTS</text>
</g>
<!-- TEST_SET_BASE -->
<g id="node5" class="node">
<title>TEST_SET_BASE</title>
<path fill="none" stroke="black" d="M350,-204.5C350,-204.5 253.75,-204.5 253.75,-204.5 247.75,-204.5 241.75,-198.5 241.75,-192.5 241.75,-192.5 241.75,-180.5 241.75,-180.5 241.75,-174.5 247.75,-168.5 253.75,-168.5 253.75,-168.5 350,-168.5 350,-168.5 356,-168.5 362,-174.5 362,-180.5 362,-180.5 362,-192.5 362,-192.5 362,-198.5 356,-204.5 350,-204.5"/>
<text xml:space="preserve" text-anchor="middle" x="301.88" y="-181.45" font-family="Times New Roman,serif" font-size="14.00">TEST_SET_BASE</text>
</g>
<!-- LIB_TESTS&#45;&gt;TEST_SET_BASE -->
<g id="edge3" class="edge">
<title>LIB_TESTS&#45;&gt;TEST_SET_BASE</title>
<path fill="none" stroke="black" d="M109.43,-186.5C109.43,-186.5 230,-186.5 230,-186.5"/>
<polygon fill="none" stroke="black" points="230,-190 240,-186.5 230,-183 230,-190"/>
</g>
<!-- TEST_APP -->
<g id="node6" class="node">
<title>TEST_APP</title>
<path fill="none" stroke="black" d="M94.75,-276.5C94.75,-276.5 39,-276.5 39,-276.5 33,-276.5 27,-270.5 27,-264.5 27,-264.5 27,-252.5 27,-252.5 27,-246.5 33,-240.5 39,-240.5 39,-240.5 94.75,-240.5 94.75,-240.5 100.75,-240.5 106.75,-246.5 106.75,-252.5 106.75,-252.5 106.75,-264.5 106.75,-264.5 106.75,-270.5 100.75,-276.5 94.75,-276.5"/>
<text xml:space="preserve" text-anchor="middle" x="66.88" y="-253.45" font-family="Times New Roman,serif" font-size="14.00">TEST_APP</text>
</g>
</g>
</svg>
