<?xml version="1.0" encoding="UTF-8" standalone="no"?>
<!DOCTYPE svg PUBLIC "-//W3C//DTD SVG 1.1//EN"
 "http://www.w3.org/Graphics/SVG/1.1/DTD/svg11.dtd">
<!-- Generated by graphviz version 14.1.1 (20251213.1925)
 -->
<!-- Title: ContractCoverage Pages: 1 -->
<svg width="816pt" height="785pt"
 viewBox="48.00 48.00 768.00 737.00" xmlns="http://www.w3.org/2000/svg" xmlns:xlink="http://www.w3.org/1999/xlink">
<g id="graph0" class="graph" transform="scale(0.660096 0.660096) rotate(0) translate(76.72 1112.34)">
<title>ContractCoverage</title>
<polygon fill="white" stroke="none" points="-4,4 -4,-1039.62 1086.75,-1039.62 1086.75,4 -4,4"/>
<text xml:space="preserve" text-anchor="middle" x="541.38" y="-1022.12" font-family="Times New Roman,serif" font-size="10.00">simple_decimal &#45; Contract Coverage</text>
<g id="clust1" class="cluster">
<title>cluster_SIMPLE_DECIMAL</title>
<polygon fill="white" stroke="black" points="736.38,-414 736.38,-756.5 1047.12,-756.5 1047.12,-414 736.38,-414"/>
<text xml:space="preserve" text-anchor="middle" x="891.75" y="-739.2" font-family="Times New Roman,serif" font-size="14.00">SIMPLE_DECIMAL</text>
</g>
<g id="clust2" class="cluster">
<title>cluster_LIB_TESTS</title>
<polygon fill="white" stroke="black" points="0,-92 0,-740.5 647.5,-740.5 647.5,-92 0,-92"/>
<text xml:space="preserve" text-anchor="middle" x="323.75" y="-723.2" font-family="Times New Roman,serif" font-size="14.00">LIB_TESTS</text>
</g>
<g id="clust3" class="cluster">
<title>cluster_TEST_APP</title>
<polygon fill="white" stroke="black" points="736.75,0 736.75,-340.5 1082.75,-340.5 1082.75,0 736.75,0"/>
<text xml:space="preserve" text-anchor="middle" x="909.75" y="-323.2" font-family="Times New Roman,serif" font-size="14.00">TEST_APP</text>
</g>
<g id="clust4" class="cluster">
<title>cluster_legend</title>
<polygon fill="lightyellow" stroke="black" points="414.38,-828.13 414.38,-1016.38 627.12,-1016.38 627.12,-828.13 414.38,-828.13"/>
<text xml:space="preserve" text-anchor="middle" x="520.75" y="-1002.88" font-family="Times New Roman,serif" font-size="10.00">Legend</text>
</g>
<!-- SIMPLE_DECIMAL_default_create -->
<g id="node1" class="node">
<title>SIMPLE_DECIMAL_default_create</title>
<polygon fill="khaki" stroke="black" points="1043.25,-684 969.5,-684 969.5,-648 1043.25,-648 1043.25,-684"/>
<text xml:space="preserve" text-anchor="middle" x="1006.38" y="-662.12" font-family="Times New Roman,serif" font-size="10.00">default_create</text>
</g>
<!-- SIMPLE_DECIMAL_make -->
<g id="node2" class="node">
<title>SIMPLE_DECIMAL_make</title>
<polygon fill="lightgray" stroke="black" points="1030.38,-450 976.37,-450 976.37,-414 1030.38,-414 1030.38,-450"/>
<text xml:space="preserve" text-anchor="middle" x="1003.37" y="-428.12" font-family="Times New Roman,serif" font-size="10.00">make</text>
</g>
<!-- SIMPLE_DECIMAL_value_not_empty -->
<g id="node3" class="node">
<title>SIMPLE_DECIMAL_value_not_empty</title>
<polygon fill="lightgray" stroke="black" points="878.38,-504 790.38,-504 790.38,-468 878.38,-468 878.38,-504"/>
<text xml:space="preserve" text-anchor="middle" x="834.38" y="-482.12" font-family="Times New Roman,serif" font-size="10.00">value_not_empty</text>
</g>
<!-- SIMPLE_DECIMAL_a_value -->
<g id="node4" class="node">
<title>SIMPLE_DECIMAL_a_value</title>
<polygon fill="lightgray" stroke="black" points="946.38,-732 892.38,-732 892.38,-696 946.38,-696 946.38,-732"/>
<text xml:space="preserve" text-anchor="middle" x="919.38" y="-710.12" font-family="Times New Roman,serif" font-size="10.00">a_value</text>
</g>
<!-- SIMPLE_DECIMAL_is_empty -->
<g id="node5" class="node">
<title>SIMPLE_DECIMAL_is_empty</title>
<polygon fill="khaki" stroke="black" points="868.38,-732 814.38,-732 814.38,-696 868.38,-696 868.38,-732"/>
<text xml:space="preserve" text-anchor="middle" x="841.38" y="-710.12" font-family="Times New Roman,serif" font-size="10.00">is_empty</text>
</g>
<!-- SIMPLE_DECIMAL_make_from_integer -->
<g id="node6" class="node">
<title>SIMPLE_DECIMAL_make_from_integer</title>
<polygon fill="khaki" stroke="black" points="885.12,-672 789.62,-672 789.62,-636 885.12,-636 885.12,-672"/>
<text xml:space="preserve" text-anchor="middle" x="837.38" y="-650.12" font-family="Times New Roman,serif" font-size="10.00">make_from_integer</text>
</g>
<!-- SIMPLE_DECIMAL_make_from_double -->
<g id="node7" class="node">
<title>SIMPLE_DECIMAL_make_from_double</title>
<polygon fill="lightgray" stroke="black" points="1047.12,-510 951.62,-510 951.62,-474 1047.12,-474 1047.12,-510"/>
<text xml:space="preserve" text-anchor="middle" x="999.37" y="-488.12" font-family="Times New Roman,serif" font-size="10.00">make_from_double</text>
</g>
<!-- SIMPLE_DECIMAL_context -->
<g id="node8" class="node">
<title>SIMPLE_DECIMAL_context</title>
<polygon fill="lightgray" stroke="black" points="952.38,-450 898.38,-450 898.38,-414 952.38,-414 952.38,-450"/>
<text xml:space="preserve" text-anchor="middle" x="925.38" y="-428.12" font-family="Times New Roman,serif" font-size="10.00">context</text>
</g>
<!-- SIMPLE_DECIMAL_make_double_extended -->
<g id="node9" class="node">
<title>SIMPLE_DECIMAL_make_double_extended</title>
<polygon fill="lightgray" stroke="black" points="928.5,-564 814.25,-564 814.25,-528 928.5,-528 928.5,-564"/>
<text xml:space="preserve" text-anchor="middle" x="871.38" y="-542.12" font-family="Times New Roman,serif" font-size="10.00">make_double_extended</text>
</g>
<!-- SIMPLE_DECIMAL_decimal -->
<g id="node10" class="node">
<title>SIMPLE_DECIMAL_decimal</title>
<polygon fill="lightgray" stroke="black" points="790.38,-612 736.38,-612 736.38,-576 790.38,-576 790.38,-612"/>
<text xml:space="preserve" text-anchor="middle" x="763.38" y="-590.12" font-family="Times New Roman,serif" font-size="10.00">decimal</text>
</g>
<!-- SIMPLE_DECIMAL_make_from_string_ctx -->
<g id="node11" class="node">
<title>SIMPLE_DECIMAL_make_from_string_ctx</title>
<polygon fill="lightgray" stroke="black" points="1018.5,-624 910.25,-624 910.25,-588 1018.5,-588 1018.5,-624"/>
<text xml:space="preserve" text-anchor="middle" x="964.38" y="-602.12" font-family="Times New Roman,serif" font-size="10.00">make_from_string_ctx</text>
</g>
<!-- LIB_TESTS_test_make_from_string -->
<g id="node12" class="node">
<title>LIB_TESTS_test_make_from_string</title>
<polygon fill="lightcoral" stroke="black" points="423.87,-576 314.12,-576 314.12,-540 423.87,-540 423.87,-576"/>
<text xml:space="preserve" text-anchor="middle" x="369" y="-554.12" font-family="Times New Roman,serif" font-size="10.00">test_make_from_string</text>
</g>
<!-- LIB_TESTS_test_make_from_integer -->
<g id="node13" class="node">
<title>LIB_TESTS_test_make_from_integer</title>
<polygon fill="lightcoral" stroke="black" points="282.5,-296 167.5,-296 167.5,-260 282.5,-260 282.5,-296"/>
<text xml:space="preserve" text-anchor="middle" x="225" y="-274.12" font-family="Times New Roman,serif" font-size="10.00">test_make_from_integer</text>
</g>
<!-- LIB_TESTS_test_make_from_double -->
<g id="node14" class="node">
<title>LIB_TESTS_test_make_from_double</title>
<polygon fill="lightcoral" stroke="black" points="555.5,-289 440.5,-289 440.5,-253 555.5,-253 555.5,-289"/>
<text xml:space="preserve" text-anchor="middle" x="498" y="-267.12" font-family="Times New Roman,serif" font-size="10.00">test_make_from_double</text>
</g>
<!-- LIB_TESTS_test_make_currency -->
<g id="node15" class="node">
<title>LIB_TESTS_test_make_currency</title>
<polygon fill="lightcoral" stroke="black" points="600.87,-632 503.12,-632 503.12,-596 600.87,-596 600.87,-632"/>
<text xml:space="preserve" text-anchor="middle" x="552" y="-610.12" font-family="Times New Roman,serif" font-size="10.00">test_make_currency</text>
</g>
<!-- LIB_TESTS_test_make_zero_and_one -->
<g id="node16" class="node">
<title>LIB_TESTS_test_make_zero_and_one</title>
<polygon fill="lightcoral" stroke="black" points="512.12,-520 391.87,-520 391.87,-484 512.12,-484 512.12,-520"/>
<text xml:space="preserve" text-anchor="middle" x="452" y="-498.12" font-family="Times New Roman,serif" font-size="10.00">test_make_zero_and_one</text>
</g>
<!-- LIB_TESTS_test_clean_string_parsing -->
<g id="node17" class="node">
<title>LIB_TESTS_test_clean_string_parsing</title>
<polygon fill="lightcoral" stroke="black" points="372.5,-520 251.5,-520 251.5,-484 372.5,-484 372.5,-520"/>
<text xml:space="preserve" text-anchor="middle" x="312" y="-498.12" font-family="Times New Roman,serif" font-size="10.00">test_clean_string_parsing</text>
</g>
<!-- LIB_TESTS_test_is_zero -->
<g id="node18" class="node">
<title>LIB_TESTS_test_is_zero</title>
<polygon fill="lightcoral" stroke="black" points="638.37,-240 573.62,-240 573.62,-204 638.37,-204 638.37,-240"/>
<text xml:space="preserve" text-anchor="middle" x="606" y="-218.12" font-family="Times New Roman,serif" font-size="10.00">test_is_zero</text>
</g>
<!-- LIB_TESTS_test_is_negative -->
<g id="node19" class="node">
<title>LIB_TESTS_test_is_negative</title>
<polygon fill="lightcoral" stroke="black" points="145.37,-296 62.62,-296 62.62,-260 145.37,-260 145.37,-296"/>
<text xml:space="preserve" text-anchor="middle" x="104" y="-274.12" font-family="Times New Roman,serif" font-size="10.00">test_is_negative</text>
</g>
<!-- LIB_TESTS_test_is_positive -->
<g id="node20" class="node">
<title>LIB_TESTS_test_is_positive</title>
<polygon fill="lightcoral" stroke="black" points="626.25,-184 545.75,-184 545.75,-148 626.25,-148 626.25,-184"/>
<text xml:space="preserve" text-anchor="middle" x="586" y="-162.12" font-family="Times New Roman,serif" font-size="10.00">test_is_positive</text>
</g>
<!-- LIB_TESTS_test_is_integer -->
<g id="node21" class="node">
<title>LIB_TESTS_test_is_integer</title>
<polygon fill="lightcoral" stroke="black" points="258,-688 182,-688 182,-652 258,-652 258,-688"/>
<text xml:space="preserve" text-anchor="middle" x="220" y="-666.12" font-family="Times New Roman,serif" font-size="10.00">test_is_integer</text>
</g>
<!-- LIB_TESTS_test_to_integer -->
<g id="node22" class="node">
<title>LIB_TESTS_test_to_integer</title>
<polygon fill="lightcoral" stroke="black" points="489.75,-177 412.25,-177 412.25,-141 489.75,-141 489.75,-177"/>
<text xml:space="preserve" text-anchor="middle" x="451" y="-155.12" font-family="Times New Roman,serif" font-size="10.00">test_to_integer</text>
</g>
<!-- LIB_TESTS_test_to_double -->
<g id="node23" class="node">
<title>LIB_TESTS_test_to_double</title>
<polygon fill="lightcoral" stroke="black" points="237.75,-184 160.25,-184 160.25,-148 237.75,-148 237.75,-184"/>
<text xml:space="preserve" text-anchor="middle" x="199" y="-162.12" font-family="Times New Roman,serif" font-size="10.00">test_to_double</text>
</g>
<!-- LIB_TESTS_test_to_string -->
<g id="node24" class="node">
<title>LIB_TESTS_test_to_string</title>
<polygon fill="lightcoral" stroke="black" points="443.12,-688 370.87,-688 370.87,-652 443.12,-652 443.12,-688"/>
<text xml:space="preserve" text-anchor="middle" x="407" y="-666.12" font-family="Times New Roman,serif" font-size="10.00">test_to_string</text>
</g>
<!-- LIB_TESTS_test_to_currency_string -->
<g id="node25" class="node">
<title>LIB_TESTS_test_to_currency_string</title>
<polygon fill="lightcoral" stroke="black" points="553.37,-345 440.62,-345 440.62,-309 553.37,-309 553.37,-345"/>
<text xml:space="preserve" text-anchor="middle" x="497" y="-323.12" font-family="Times New Roman,serif" font-size="10.00">test_to_currency_string</text>
</g>
<!-- LIB_TESTS_test_dollars_and_cents -->
<g id="node26" class="node">
<title>LIB_TESTS_test_dollars_and_cents</title>
<polygon fill="lightcoral" stroke="black" points="290.88,-576 181.12,-576 181.12,-540 290.88,-540 290.88,-576"/>
<text xml:space="preserve" text-anchor="middle" x="236" y="-554.12" font-family="Times New Roman,serif" font-size="10.00">test_dollars_and_cents</text>
</g>
<!-- LIB_TESTS_test_is_less -->
<g id="node27" class="node">
<title>LIB_TESTS_test_is_less</title>
<polygon fill="lightcoral" stroke="black" points="90.25,-408 27.75,-408 27.75,-372 90.25,-372 90.25,-408"/>
<text xml:space="preserve" text-anchor="middle" x="59" y="-386.12" font-family="Times New Roman,serif" font-size="10.00">test_is_less</text>
</g>
<!-- LIB_TESTS_test_is_equal_decimal -->
<g id="node28" class="node">
<title>LIB_TESTS_test_is_equal_decimal</title>
<polygon fill="lightcoral" stroke="black" points="589.75,-464 482.25,-464 482.25,-428 589.75,-428 589.75,-464"/>
<text xml:space="preserve" text-anchor="middle" x="536" y="-442.12" font-family="Times New Roman,serif" font-size="10.00">test_is_equal_decimal</text>
</g>
<!-- LIB_TESTS_test_comparison_operators -->
<g id="node29" class="node">
<title>LIB_TESTS_test_comparison_operators</title>
<polygon fill="lightcoral" stroke="black" points="460.75,-464 335.25,-464 335.25,-428 460.75,-428 460.75,-464"/>
<text xml:space="preserve" text-anchor="middle" x="398" y="-442.12" font-family="Times New Roman,serif" font-size="10.00">test_comparison_operators</text>
</g>
<!-- LIB_TESTS_test_min_max -->
<g id="node30" class="node">
<title>LIB_TESTS_test_min_max</title>
<polygon fill="lightcoral" stroke="black" points="632.87,-688 559.12,-688 559.12,-652 632.87,-652 632.87,-688"/>
<text xml:space="preserve" text-anchor="middle" x="596" y="-666.12" font-family="Times New Roman,serif" font-size="10.00">test_min_max</text>
</g>
<!-- LIB_TESTS_test_addition -->
<g id="node31" class="node">
<title>LIB_TESTS_test_addition</title>
<polygon fill="lightcoral" stroke="black" points="161,-688 91,-688 91,-652 161,-652 161,-688"/>
<text xml:space="preserve" text-anchor="middle" x="126" y="-666.12" font-family="Times New Roman,serif" font-size="10.00">test_addition</text>
</g>
<!-- LIB_TESTS_test_subtraction -->
<g id="node32" class="node">
<title>LIB_TESTS_test_subtraction</title>
<polygon fill="lightcoral" stroke="black" points="136.62,-352 55.37,-352 55.37,-316 136.62,-316 136.62,-352"/>
<text xml:space="preserve" text-anchor="middle" x="96" y="-330.12" font-family="Times New Roman,serif" font-size="10.00">test_subtraction</text>
</g>
<!-- LIB_TESTS_test_multiplication -->
<g id="node33" class="node">
<title>LIB_TESTS_test_multiplication</title>
<polygon fill="lightcoral" stroke="black" points="619,-401 525,-401 525,-365 619,-365 619,-401"/>
<text xml:space="preserve" text-anchor="middle" x="572" y="-379.12" font-family="Times New Roman,serif" font-size="10.00">test_multiplication</text>
</g>
<!-- LIB_TESTS_test_division -->
<g id="node34" class="node">
<title>LIB_TESTS_test_division</title>
<polygon fill="lightcoral" stroke="black" points="103.62,-520 34.37,-520 34.37,-484 103.62,-484 103.62,-520"/>
<text xml:space="preserve" text-anchor="middle" x="69" y="-498.12" font-family="Times New Roman,serif" font-size="10.00">test_division</text>
</g>
<!-- LIB_TESTS_test_integer_division -->
<g id="node35" class="node">
<title>LIB_TESTS_test_integer_division</title>
<polygon fill="lightcoral" stroke="black" points="480.5,-632 377.5,-632 377.5,-596 480.5,-596 480.5,-632"/>
<text xml:space="preserve" text-anchor="middle" x="429" y="-610.12" font-family="Times New Roman,serif" font-size="10.00">test_integer_division</text>
</g>
<!-- LIB_TESTS_test_modulo -->
<g id="node36" class="node">
<title>LIB_TESTS_test_modulo</title>
<polygon fill="lightcoral" stroke="black" points="647.5,-576 580.5,-576 580.5,-540 647.5,-540 647.5,-576"/>
<text xml:space="preserve" text-anchor="middle" x="614" y="-554.12" font-family="Times New Roman,serif" font-size="10.00">test_modulo</text>
</g>
<!-- LIB_TESTS_test_negate -->
<g id="node37" class="node">
<title>LIB_TESTS_test_negate</title>
<polygon fill="lightcoral" stroke="black" points="636.25,-296 573.75,-296 573.75,-260 636.25,-260 636.25,-296"/>
<text xml:space="preserve" text-anchor="middle" x="605" y="-274.12" font-family="Times New Roman,serif" font-size="10.00">test_negate</text>
</g>
<!-- LIB_TESTS_test_absolute -->
<g id="node38" class="node">
<title>LIB_TESTS_test_absolute</title>
<polygon fill="lightcoral" stroke="black" points="532,-688 462,-688 462,-652 532,-652 532,-688"/>
<text xml:space="preserve" text-anchor="middle" x="497" y="-666.12" font-family="Times New Roman,serif" font-size="10.00">test_absolute</text>
</g>
<!-- LIB_TESTS_test_power -->
<g id="node39" class="node">
<title>LIB_TESTS_test_power</title>
<polygon fill="lightgray" stroke="black" points="74.5,-716 13.5,-716 13.5,-680 74.5,-680 74.5,-716"/>
<text xml:space="preserve" text-anchor="middle" x="44" y="-694.12" font-family="Times New Roman,serif" font-size="10.00">test_power</text>
</g>
<!-- LIB_TESTS_d -->
<g id="node40" class="node">
<title>LIB_TESTS_d</title>
<polygon fill="lightgray" stroke="black" points="565,-128 511,-128 511,-92 565,-92 565,-128"/>
<text xml:space="preserve" text-anchor="middle" x="538" y="-106.12" font-family="Times New Roman,serif" font-size="10.00">d</text>
</g>
<!-- LIB_TESTS_l_result -->
<g id="node41" class="node">
<title>LIB_TESTS_l_result</title>
<polygon fill="lightcoral" stroke="black" points="355,-128 301,-128 301,-92 355,-92 355,-128"/>
<text xml:space="preserve" text-anchor="middle" x="328" y="-106.12" font-family="Times New Roman,serif" font-size="10.00">l_result</text>
</g>
<!-- LIB_TESTS_test_point_one_plus_point_two -->
<g id="node42" class="node">
<title>LIB_TESTS_test_point_one_plus_point_two</title>
<polygon fill="lightgray" stroke="black" points="372,-408 224,-408 224,-372 372,-372 372,-408"/>
<text xml:space="preserve" text-anchor="middle" x="298" y="-386.12" font-family="Times New Roman,serif" font-size="10.00">test_point_one_plus_point_two</text>
</g>
<!-- LIB_TESTS_a -->
<g id="node43" class="node">
<title>LIB_TESTS_a</title>
<polygon fill="lightgray" stroke="black" points="61,-464 7,-464 7,-428 61,-428 61,-464"/>
<text xml:space="preserve" text-anchor="middle" x="34" y="-442.12" font-family="Times New Roman,serif" font-size="10.00">a</text>
</g>
<!-- LIB_TESTS_b -->
<g id="node44" class="node">
<title>LIB_TESTS_b</title>
<polygon fill="lightgray" stroke="black" points="635,-128 581,-128 581,-92 635,-92 635,-128"/>
<text xml:space="preserve" text-anchor="middle" x="608" y="-106.12" font-family="Times New Roman,serif" font-size="10.00">b</text>
</g>
<!-- LIB_TESTS_c -->
<g id="node45" class="node">
<title>LIB_TESTS_c</title>
<polygon fill="lightgray" stroke="black" points="54,-128 0,-128 0,-92 54,-92 54,-128"/>
<text xml:space="preserve" text-anchor="middle" x="27" y="-106.12" font-family="Times New Roman,serif" font-size="10.00">c</text>
</g>
<!-- LIB_TESTS_test_round_cents -->
<g id="node46" class="node">
<title>LIB_TESTS_test_round_cents</title>
<polygon fill="lightcoral" stroke="black" points="168.87,-464 83.12,-464 83.12,-428 168.87,-428 168.87,-464"/>
<text xml:space="preserve" text-anchor="middle" x="126" y="-442.12" font-family="Times New Roman,serif" font-size="10.00">test_round_cents</text>
</g>
<!-- LIB_TESTS_test_round_to_places -->
<g id="node47" class="node">
<title>LIB_TESTS_test_round_to_places</title>
<polygon fill="lightcoral" stroke="black" points="228.87,-520 125.12,-520 125.12,-484 228.87,-484 228.87,-520"/>
<text xml:space="preserve" text-anchor="middle" x="177" y="-498.12" font-family="Times New Roman,serif" font-size="10.00">test_round_to_places</text>
</g>
<!-- LIB_TESTS_test_round_up -->
<g id="node48" class="node">
<title>LIB_TESTS_test_round_up</title>
<polygon fill="lightcoral" stroke="black" points="116.62,-632 41.37,-632 41.37,-596 116.62,-596 116.62,-632"/>
<text xml:space="preserve" text-anchor="middle" x="79" y="-610.12" font-family="Times New Roman,serif" font-size="10.00">test_round_up</text>
</g>
<!-- LIB_TESTS_test_round_down -->
<g id="node49" class="node">
<title>LIB_TESTS_test_round_down</title>
<polygon fill="lightcoral" stroke="black" points="389,-184 301,-184 301,-148 389,-148 389,-184"/>
<text xml:space="preserve" text-anchor="middle" x="345" y="-162.12" font-family="Times New Roman,serif" font-size="10.00">test_round_down</text>
</g>
<!-- LIB_TESTS_test_round_ceiling -->
<g id="node50" class="node">
<title>LIB_TESTS_test_round_ceiling</title>
<polygon fill="lightcoral" stroke="black" points="232.62,-632 139.37,-632 139.37,-596 232.62,-596 232.62,-632"/>
<text xml:space="preserve" text-anchor="middle" x="186" y="-610.12" font-family="Times New Roman,serif" font-size="10.00">test_round_ceiling</text>
</g>
<!-- LIB_TESTS_test_round_floor -->
<g id="node51" class="node">
<title>LIB_TESTS_test_round_floor</title>
<polygon fill="lightcoral" stroke="black" points="616.12,-520 531.87,-520 531.87,-484 616.12,-484 616.12,-520"/>
<text xml:space="preserve" text-anchor="middle" x="574" y="-498.12" font-family="Times New Roman,serif" font-size="10.00">test_round_floor</text>
</g>
<!-- LIB_TESTS_test_truncate -->
<g id="node52" class="node">
<title>LIB_TESTS_test_truncate</title>
<polygon fill="lightcoral" stroke="black" points="89.25,-240 20.75,-240 20.75,-204 89.25,-204 89.25,-240"/>
<text xml:space="preserve" text-anchor="middle" x="55" y="-218.12" font-family="Times New Roman,serif" font-size="10.00">test_truncate</text>
</g>
<!-- LIB_TESTS_test_bankers_rounding -->
<g id="node53" class="node">
<title>LIB_TESTS_test_bankers_rounding</title>
<polygon fill="lightcoral" stroke="black" points="556.87,-576 447.12,-576 447.12,-540 556.87,-540 556.87,-576"/>
<text xml:space="preserve" text-anchor="middle" x="502" y="-554.12" font-family="Times New Roman,serif" font-size="10.00">test_bankers_rounding</text>
</g>
<!-- LIB_TESTS_test_percent_of -->
<g id="node54" class="node">
<title>LIB_TESTS_test_percent_of</title>
<polygon fill="lightcoral" stroke="black" points="134.5,-184 55.5,-184 55.5,-148 134.5,-148 134.5,-184"/>
<text xml:space="preserve" text-anchor="middle" x="95" y="-162.12" font-family="Times New Roman,serif" font-size="10.00">test_percent_of</text>
</g>
<!-- LIB_TESTS_test_as_percentage -->
<g id="node55" class="node">
<title>LIB_TESTS_test_as_percentage</title>
<polygon fill="lightcoral" stroke="black" points="351.62,-632 258.37,-632 258.37,-596 351.62,-596 351.62,-632"/>
<text xml:space="preserve" text-anchor="middle" x="305" y="-610.12" font-family="Times New Roman,serif" font-size="10.00">test_as_percentage</text>
</g>
<!-- LIB_TESTS_test_from_percentage -->
<g id="node56" class="node">
<title>LIB_TESTS_test_from_percentage</title>
<polygon fill="lightcoral" stroke="black" points="214.87,-240 111.12,-240 111.12,-204 214.87,-204 214.87,-240"/>
<text xml:space="preserve" text-anchor="middle" x="163" y="-218.12" font-family="Times New Roman,serif" font-size="10.00">test_from_percentage</text>
</g>
<!-- LIB_TESTS_test_add_percent -->
<g id="node57" class="node">
<title>LIB_TESTS_test_add_percent</title>
<polygon fill="lightcoral" stroke="black" points="154.87,-576 69.12,-576 69.12,-540 154.87,-540 154.87,-576"/>
<text xml:space="preserve" text-anchor="middle" x="112" y="-554.12" font-family="Times New Roman,serif" font-size="10.00">test_add_percent</text>
</g>
<!-- LIB_TESTS_test_subtract_percent -->
<g id="node58" class="node">
<title>LIB_TESTS_test_subtract_percent</title>
<polygon fill="lightcoral" stroke="black" points="403.5,-240 300.5,-240 300.5,-204 403.5,-204 403.5,-240"/>
<text xml:space="preserve" text-anchor="middle" x="352" y="-218.12" font-family="Times New Roman,serif" font-size="10.00">test_subtract_percent</text>
</g>
<!-- LIB_TESTS_test_split_bill -->
<g id="node59" class="node">
<title>LIB_TESTS_test_split_bill</title>
<polygon fill="lightcoral" stroke="black" points="352.5,-688 279.5,-688 279.5,-652 352.5,-652 352.5,-688"/>
<text xml:space="preserve" text-anchor="middle" x="316" y="-666.12" font-family="Times New Roman,serif" font-size="10.00">test_split_bill</text>
</g>
<!-- LIB_TESTS_test_tax_calculation -->
<g id="node60" class="node">
<title>LIB_TESTS_test_tax_calculation</title>
<polygon fill="lightcoral" stroke="black" points="525.62,-233 426.37,-233 426.37,-197 525.62,-197 525.62,-233"/>
<text xml:space="preserve" text-anchor="middle" x="476" y="-211.12" font-family="Times New Roman,serif" font-size="10.00">test_tax_calculation</text>
</g>
<!-- LIB_TESTS_test_tip_calculation -->
<g id="node61" class="node">
<title>LIB_TESTS_test_tip_calculation</title>
<polygon fill="lightcoral" stroke="black" points="208.87,-408 111.12,-408 111.12,-372 208.87,-372 208.87,-408"/>
<text xml:space="preserve" text-anchor="middle" x="160" y="-386.12" font-family="Times New Roman,serif" font-size="10.00">test_tip_calculation</text>
</g>
<!-- LIB_TESTS_test_discount_calculation -->
<g id="node62" class="node">
<title>LIB_TESTS_test_discount_calculation</title>
<polygon fill="lightcoral" stroke="black" points="421.87,-352 300.12,-352 300.12,-316 421.87,-316 421.87,-352"/>
<text xml:space="preserve" text-anchor="middle" x="361" y="-330.12" font-family="Times New Roman,serif" font-size="10.00">test_discount_calculation</text>
</g>
<!-- LIB_TESTS_test_very_large_numbers -->
<g id="node63" class="node">
<title>LIB_TESTS_test_very_large_numbers</title>
<polygon fill="lightcoral" stroke="black" points="419.37,-296 300.62,-296 300.62,-260 419.37,-260 419.37,-296"/>
<text xml:space="preserve" text-anchor="middle" x="360" y="-274.12" font-family="Times New Roman,serif" font-size="10.00">test_very_large_numbers</text>
</g>
<!-- LIB_TESTS_test_very_small_numbers -->
<g id="node64" class="node">
<title>LIB_TESTS_test_very_small_numbers</title>
<polygon fill="lightcoral" stroke="black" points="309.12,-464 188.87,-464 188.87,-428 309.12,-428 309.12,-464"/>
<text xml:space="preserve" text-anchor="middle" x="249" y="-442.12" font-family="Times New Roman,serif" font-size="10.00">test_very_small_numbers</text>
</g>
<!-- LIB_TESTS_test_negative_operations -->
<g id="node65" class="node">
<title>LIB_TESTS_test_negative_operations</title>
<polygon fill="lightcoral" stroke="black" points="510.37,-408 391.62,-408 391.62,-372 510.37,-372 510.37,-408"/>
<text xml:space="preserve" text-anchor="middle" x="451" y="-386.12" font-family="Times New Roman,serif" font-size="10.00">test_negative_operations</text>
</g>
<!-- LIB_TESTS_test_chained_operations -->
<g id="node66" class="node">
<title>LIB_TESTS_test_chained_operations</title>
<polygon fill="lightcoral" stroke="black" points="275.88,-352 160.12,-352 160.12,-316 275.88,-316 275.88,-352"/>
<text xml:space="preserve" text-anchor="middle" x="218" y="-330.12" font-family="Times New Roman,serif" font-size="10.00">test_chained_operations</text>
</g>
<!-- TEST_APP_make -->
<g id="node67" class="node">
<title>TEST_APP_make</title>
<polygon fill="lightcoral" stroke="black" points="790.75,-36 736.75,-36 736.75,0 790.75,0 790.75,-36"/>
<text xml:space="preserve" text-anchor="middle" x="763.75" y="-14.12" font-family="Times New Roman,serif" font-size="10.00">make</text>
</g>
<!-- TEST_APP_run_creation_tests -->
<g id="node68" class="node">
<title>TEST_APP_run_creation_tests</title>
<polygon fill="lightcoral" stroke="black" points="883.25,-246 792.25,-246 792.25,-210 883.25,-210 883.25,-246"/>
<text xml:space="preserve" text-anchor="middle" x="837.75" y="-224.12" font-family="Times New Roman,serif" font-size="10.00">run_creation_tests</text>
</g>
<!-- TEST_APP_run_status_tests -->
<g id="node69" class="node">
<title>TEST_APP_run_status_tests</title>
<polygon fill="lightcoral" stroke="black" points="950.38,-36 869.13,-36 869.13,0 950.38,0 950.38,-36"/>
<text xml:space="preserve" text-anchor="middle" x="909.75" y="-14.12" font-family="Times New Roman,serif" font-size="10.00">run_status_tests</text>
</g>
<!-- TEST_APP_run_conversion_tests -->
<g id="node70" class="node">
<title>TEST_APP_run_conversion_tests</title>
<polygon fill="lightcoral" stroke="black" points="972.25,-92 869.25,-92 869.25,-56 972.25,-56 972.25,-92"/>
<text xml:space="preserve" text-anchor="middle" x="920.75" y="-70.12" font-family="Times New Roman,serif" font-size="10.00">run_conversion_tests</text>
</g>
<!-- TEST_APP_run_comparison_tests -->
<g id="node71" class="node">
<title>TEST_APP_run_comparison_tests</title>
<polygon fill="lightcoral" stroke="black" points="918.38,-148 813.12,-148 813.12,-112 918.38,-112 918.38,-148"/>
<text xml:space="preserve" text-anchor="middle" x="865.75" y="-126.12" font-family="Times New Roman,serif" font-size="10.00">run_comparison_tests</text>
</g>
<!-- TEST_APP_run_arithmetic_tests -->
<g id="node72" class="node">
<title>TEST_APP_run_arithmetic_tests</title>
<polygon fill="lightcoral" stroke="black" points="1045.38,-148 946.12,-148 946.12,-112 1045.38,-112 1045.38,-148"/>
<text xml:space="preserve" text-anchor="middle" x="995.75" y="-126.12" font-family="Times New Roman,serif" font-size="10.00">run_arithmetic_tests</text>
</g>
<!-- TEST_APP_run_precision_tests -->
<g id="node73" class="node">
<title>TEST_APP_run_precision_tests</title>
<polygon fill="lightcoral" stroke="black" points="845.5,-92 750,-92 750,-56 845.5,-56 845.5,-92"/>
<text xml:space="preserve" text-anchor="middle" x="797.75" y="-70.12" font-family="Times New Roman,serif" font-size="10.00">run_precision_tests</text>
</g>
<!-- TEST_APP_run_rounding_tests -->
<g id="node74" class="node">
<title>TEST_APP_run_rounding_tests</title>
<polygon fill="lightcoral" stroke="black" points="1055.5,-260 960,-260 960,-224 1055.5,-224 1055.5,-260"/>
<text xml:space="preserve" text-anchor="middle" x="1007.75" y="-238.12" font-family="Times New Roman,serif" font-size="10.00">run_rounding_tests</text>
</g>
<!-- TEST_APP_run_financial_tests -->
<g id="node75" class="node">
<title>TEST_APP_run_financial_tests</title>
<polygon fill="lightcoral" stroke="black" points="1082.75,-50 988.75,-50 988.75,-14 1082.75,-14 1082.75,-50"/>
<text xml:space="preserve" text-anchor="middle" x="1035.75" y="-28.12" font-family="Times New Roman,serif" font-size="10.00">run_financial_tests</text>
</g>
<!-- TEST_APP_run_edge_case_tests -->
<g id="node76" class="node">
<title>TEST_APP_run_edge_case_tests</title>
<polygon fill="lightcoral" stroke="black" points="1004.75,-204 904.75,-204 904.75,-168 1004.75,-168 1004.75,-204"/>
<text xml:space="preserve" text-anchor="middle" x="954.75" y="-182.12" font-family="Times New Roman,serif" font-size="10.00">run_edge_case_tests</text>
</g>
<!-- TEST_APP_tests -->
<g id="node77" class="node">
<title>TEST_APP_tests</title>
<polygon fill="lightgray" stroke="black" points="790.75,-190 736.75,-190 736.75,-154 790.75,-154 790.75,-190"/>
<text xml:space="preserve" text-anchor="middle" x="763.75" y="-168.12" font-family="Times New Roman,serif" font-size="10.00">tests</text>
</g>
<!-- TEST_APP_passed_count -->
<g id="node78" class="node">
<title>TEST_APP_passed_count</title>
<polygon fill="lightgray" stroke="black" points="933.5,-302 862,-302 862,-266 933.5,-266 933.5,-302"/>
<text xml:space="preserve" text-anchor="middle" x="897.75" y="-280.12" font-family="Times New Roman,serif" font-size="10.00">passed_count</text>
</g>
<!-- TEST_APP_failed_count -->
<g id="node79" class="node">
<title>TEST_APP_failed_count</title>
<polygon fill="lightgray" stroke="black" points="838.62,-302 770.88,-302 770.88,-266 838.62,-266 838.62,-302"/>
<text xml:space="preserve" text-anchor="middle" x="804.75" y="-280.12" font-family="Times New Roman,serif" font-size="10.00">failed_count</text>
</g>
<!-- TEST_APP_run_test -->
<g id="node80" class="node">
<title>TEST_APP_run_test</title>
<polygon fill="lightcoral" stroke="black" points="1070.75,-316 1016.75,-316 1016.75,-280 1070.75,-280 1070.75,-316"/>
<text xml:space="preserve" text-anchor="middle" x="1043.75" y="-294.12" font-family="Times New Roman,serif" font-size="10.00">run_test</text>
</g>
<!-- legend_full -->
<g id="node81" class="node">
<title>legend_full</title>
<polygon fill="palegreen" stroke="black" points="616.62,-933.13 502.38,-933.13 502.38,-892.13 616.62,-892.13 616.62,-933.13"/>
<text xml:space="preserve" text-anchor="middle" x="559.5" y="-915.83" font-family="Times New Roman,serif" font-size="14.00">Full Contract</text>
<text xml:space="preserve" text-anchor="middle" x="559.5" y="-899.33" font-family="Times New Roman,serif" font-size="14.00">(require + ensure)</text>
</g>
<!-- legend_partial -->
<g id="node82" class="node">
<title>legend_partial</title>
<polygon fill="khaki" stroke="black" points="627.12,-869.12 509.88,-869.12 509.88,-828.12 627.12,-828.12 627.12,-869.12"/>
<text xml:space="preserve" text-anchor="middle" x="568.5" y="-851.83" font-family="Times New Roman,serif" font-size="14.00">Partial Contract</text>
<text xml:space="preserve" text-anchor="middle" x="568.5" y="-835.33" font-family="Times New Roman,serif" font-size="14.00">(require or ensure)</text>
</g>
<!-- legend_none -->
<g id="node83" class="node">
<title>legend_none</title>
<polygon fill="lightcoral" stroke="black" points="608.88,-991.63 526.12,-991.63 526.12,-955.63 608.88,-955.63 608.88,-991.63"/>
<text xml:space="preserve" text-anchor="middle" x="567.5" y="-968.58" font-family="Times New Roman,serif" font-size="14.00">No Contract</text>
</g>
<!-- legend_attr -->
<g id="node84" class="node">
<title>legend_attr</title>
<polygon fill="lightgray" stroke="black" points="502.88,-997.13 438.13,-997.13 438.13,-956.13 502.88,-956.13 502.88,-997.13"/>
<text xml:space="preserve" text-anchor="middle" x="470.5" y="-979.83" font-family="Times New Roman,serif" font-size="14.00">Attribute</text>
<text xml:space="preserve" text-anchor="middle" x="470.5" y="-963.33" font-family="Times New Roman,serif" font-size="14.00">(n/a)</text>
</g>
<!-- legend_stats -->
<g id="node85" class="node">
<title>legend_stats</title>
<polygon fill="white" stroke="black" points="474.63,-935.13 414.38,-935.13 414.38,-828.13 480.63,-828.13 480.63,-929.13 474.63,-935.13"/>
<polyline fill="none" stroke="black" points="474.63,-935.13 474.63,-929.13"/>
<polyline fill="none" stroke="black" points="480.63,-929.13 474.63,-929.13"/>
<text xml:space="preserve" text-anchor="middle" x="447.5" y="-917.83" font-family="Times New Roman,serif" font-size="14.00">Statistics</text>
<text xml:space="preserve" text-anchor="middle" x="447.5" y="-901.33" font-family="Times New Roman,serif" font-size="14.00">Full: 0</text>
<text xml:space="preserve" text-anchor="middle" x="447.5" y="-884.83" font-family="Times New Roman,serif" font-size="14.00">Partial: 3</text>
<text xml:space="preserve" text-anchor="middle" x="447.5" y="-868.33" font-family="Times New Roman,serif" font-size="14.00">None: 61</text>
<text xml:space="preserve" text-anchor="middle" x="447.5" y="-851.83" font-family="Times New Roman,serif" font-size="14.00">Attr: 17</text>
<text xml:space="preserve" text-anchor="middle" x="447.5" y="-835.33" font-family="Times New Roman,serif" font-size="14.00">Total: 81</text>
</g>
</g>
</svg>
