<?xml version="1.0" encoding="UTF-8" standalone="no"?>
<!DOCTYPE svg PUBLIC "-//W3C//DTD SVG 1.1//EN"
 "http://www.w3.org/Graphics/SVG/1.1/DTD/svg11.dtd">
<!-- Generated by graphviz version 14.1.1 (20251213.1925)
 -->
<!-- Title: Dependencies Pages: 1 -->
<svg width="351pt" height="285pt"
 viewBox="0.00 0.00 351.00 285.00" xmlns="http://www.w3.org/2000/svg" xmlns:xlink="http://www.w3.org/1999/xlink">
<g id="graph0" class="graph" transform="scale(1 1) rotate(0) translate(4 280.5)">
<title>Dependencies</title>
<polygon fill="white" stroke="none" points="-4,4 -4,-280.5 346.5,-280.5 346.5,4 -4,4"/>
<text xml:space="preserve" text-anchor="middle" x="171.25" y="-7.2" font-family="Times New Roman,serif" font-size="14.00">simple_decimal &#45; Dependencies</text>
<!-- simple_decimal -->
<g id="node1" class="node">
<title>simple_decimal</title>
<polygon fill="lightblue" stroke="black" points="103,-168.5 0,-168.5 0,-132.5 103,-132.5 103,-168.5"/>
<text xml:space="preserve" text-anchor="middle" x="51.5" y="-145.45" font-family="Times New Roman,serif" font-size="14.00">simple_decimal</text>
</g>
<!-- simple_testing -->
<g id="node2" class="node">
<title>simple_testing</title>
<polygon fill="lightblue" stroke="black" points="342.5,-276.5 247,-276.5 247,-240.5 342.5,-240.5 342.5,-276.5"/>
<text xml:space="preserve" text-anchor="middle" x="294.75" y="-253.45" font-family="Times New Roman,serif" font-size="14.00">simple_testing</text>
</g>
<!-- simple_decimal&#45;&gt;simple_testing -->
<g id="edge1" class="edge">
<title>simple_decimal&#45;&gt;simple_testing</title>
<path fill="none" stroke="black" stroke-dasharray="5,2" d="M103.24,-159.5C163.68,-159.5 255.5,-159.5 255.5,-159.5 255.5,-159.5 255.5,-228.83 255.5,-228.83"/>
<polygon fill="black" stroke="black" points="252,-228.83 255.5,-238.83 259,-228.83 252,-228.83"/>
</g>
<!-- base -->
<g id="node3" class="node">
<title>base</title>
<polygon fill="lightgray" stroke="black" points="321.75,-204.5 267.75,-204.5 267.75,-168.5 321.75,-168.5 321.75,-204.5"/>
<text xml:space="preserve" text-anchor="middle" x="294.75" y="-181.45" font-family="Times New Roman,serif" font-size="14.00">base</text>
</g>
<!-- simple_decimal&#45;&gt;base -->
<g id="edge2" class="edge">
<title>simple_decimal&#45;&gt;base</title>
<path fill="none" stroke="black" stroke-dasharray="5,2" d="M103.43,-150.5C172.37,-150.5 285.5,-150.5 285.5,-150.5 285.5,-150.5 285.5,-156.56 285.5,-156.56"/>
<polygon fill="black" stroke="black" points="282,-156.56 285.5,-166.56 289,-156.56 282,-156.56"/>
</g>
<!-- decimal -->
<g id="node4" class="node">
<title>decimal</title>
<polygon fill="lightgray" stroke="black" points="324.5,-132.5 265,-132.5 265,-96.5 324.5,-96.5 324.5,-132.5"/>
<text xml:space="preserve" text-anchor="middle" x="294.75" y="-109.45" font-family="Times New Roman,serif" font-size="14.00">decimal</text>
</g>
<!-- simple_decimal&#45;&gt;decimal -->
<g id="edge3" class="edge">
<title>simple_decimal&#45;&gt;decimal</title>
<path fill="none" stroke="black" stroke-dasharray="5,2" d="M103.41,-141.5C177.18,-141.5 303.5,-141.5 303.5,-141.5 303.5,-141.5 303.5,-140.65 303.5,-140.65"/>
<polygon fill="black" stroke="black" points="307,-144.47 303.5,-134.47 300,-144.47 307,-144.47"/>
</g>
<!-- testing -->
<g id="node5" class="node">
<title>testing</title>
<polygon fill="lightgray" stroke="black" points="321.75,-60.5 267.75,-60.5 267.75,-24.5 321.75,-24.5 321.75,-60.5"/>
<text xml:space="preserve" text-anchor="middle" x="294.75" y="-37.45" font-family="Times New Roman,serif" font-size="14.00">testing</text>
</g>
<!-- simple_decimal&#45;&gt;testing -->
<g id="edge4" class="edge">
<title>simple_decimal&#45;&gt;testing</title>
<path fill="none" stroke="black" stroke-dasharray="5,2" d="M51.5,-132.18C51.5,-101.37 51.5,-42.5 51.5,-42.5 51.5,-42.5 255.81,-42.5 255.81,-42.5"/>
<polygon fill="black" stroke="black" points="255.81,-46 265.81,-42.5 255.81,-39 255.81,-46"/>
</g>
</g>
</svg>
